<svg xmlns="http://www.w3.org/2000/svg"  viewBox="0 0 48 48" width="48px" height="48px" clip-rule="evenodd"><path fill="#199be2" d="M5.761,13.5c0-4.142,3.358-7.5,7.5-7.5h20.978c4.142,0,7.5,3.358,7.5,7.5v20.978 c0,4.142-3.358,7.5-7.5,7.5H13.261c-4.142,0-7.5-3.358-7.5-7.5V13.5z"/><path fill-rule="evenodd" d="M13.011,34.979V13H25v4.235l1.149-0.427 c1.462-0.543,2.612-1.693,3.156-3.156l0.938-2.523l0.938,2.524c0.543,1.462,1.693,2.612,3.156,3.155l2.525,0.938l-2.525,0.938 c-1.463,0.544-2.613,1.694-3.156,3.156l-0.938,2.523l-0.938-2.523c-0.543-1.462-1.694-2.612-3.157-3.156L25,18.256v13.309 l9.989-9.989v13.403H13.011z" clip-rule="evenodd" opacity=".05"/><path fill-rule="evenodd" d="M13.511,34.479V13.5H24.5v19.271l9.989-9.989v11.696H13.511z M29.774,21.666c-0.594-1.598-1.853-2.856-3.452-3.451l-1.26-0.47l1.261-0.468c1.599-0.594,2.856-1.852,3.451-3.45l0.469-1.262 l0.469,1.262c0.594,1.599,1.852,2.856,3.451,3.45l1.263,0.469l-1.263,0.469c-1.6,0.595-2.857,1.853-3.451,3.451l-0.469,1.262 L29.774,21.666z" clip-rule="evenodd" opacity=".07"/><path fill="#f9f9f9" fill-rule="evenodd" d="M14.011,14H24v19.978h-9.989V14z M24,33.979l9.989-9.989v9.989 H24z M33.989,17.747c-1.735-0.644-3.102-2.011-3.746-3.746c-0.644,1.734-2.012,3.102-3.746,3.746 c1.734,0.645,3.101,2.012,3.746,3.746C30.887,19.759,32.255,18.391,33.989,17.747z" clip-rule="evenodd"/></svg>