<svg xmlns="http://www.w3.org/2000/svg" xmlns:xlink="http://www.w3.org/1999/xlink" viewBox="0,0,256,256" width="48px" height="48px"><g fill="none" fill-rule="none" stroke="none" stroke-width="1" stroke-linecap="butt" stroke-linejoin="miter" stroke-miterlimit="10" stroke-dasharray="" stroke-dashoffset="0" font-family="none" font-weight="none" font-size="none" text-anchor="none" style="mix-blend-mode: normal"><g transform="scale(5.33333,5.33333)"><path d="M5.761,13.5c0,-4.142 3.358,-7.5 7.5,-7.5h20.978c4.142,0 7.5,3.358 7.5,7.5v20.978c0,4.142 -3.358,7.5 -7.5,7.5h-20.978c-4.142,0 -7.5,-3.358 -7.5,-7.5z" fill="#152561" fill-rule="nonzero"></path><path d="M13.011,34.979v-21.979h11.989v4.235l1.149,-0.427c1.462,-0.543 2.612,-1.693 3.156,-3.156l0.938,-2.523l0.938,2.524c0.543,1.462 1.693,2.612 3.156,3.155l2.525,0.938l-2.525,0.938c-1.463,0.544 -2.613,1.694 -3.156,3.156l-0.938,2.523l-0.938,-2.523c-0.543,-1.462 -1.694,-2.612 -3.157,-3.156l-1.148,-0.428v13.309l9.989,-9.989v13.403z" fill="#000000" fill-rule="evenodd" opacity="0.05"></path><path d="M13.511,34.479v-20.979h10.989v19.271l9.989,-9.989v11.696h-20.978zM29.774,21.666c-0.594,-1.598 -1.853,-2.856 -3.452,-3.451l-1.26,-0.47l1.261,-0.468c1.599,-0.594 2.856,-1.852 3.451,-3.45l0.469,-1.262l0.469,1.262c0.594,1.599 1.852,2.856 3.451,3.45l1.263,0.469l-1.263,0.469c-1.6,0.595 -2.857,1.853 -3.451,3.451l-0.469,1.262z" fill="#000000" fill-rule="evenodd" opacity="0.07"></path><path d="M14.011,14h9.989v19.978h-9.989zM24,33.979l9.989,-9.989v9.989zM33.989,17.747c-1.735,-0.644 -3.102,-2.011 -3.746,-3.746c-0.644,1.734 -2.012,3.102 -3.746,3.746c1.734,0.645 3.101,2.012 3.746,3.746c0.644,-1.734 2.012,-3.102 3.746,-3.746z" fill="#f9f9f9" fill-rule="evenodd"></path></g></g></svg>